# xmcd
#
# Track frame offsets:
# 150
# 13809
# 25327
# 36774
# 46591
# 60479
# 66448
# 77511
# 85453
# 105444
# 117213
# 127579
# 135355
# 142186
# 154192
# 172432
# 183903
#
# Disc length: 2739 seconds
#
#
# Revision: 0
# Processed by: cddbd v1.5.1PL0 Copyright (c) Steve Scherf et al.
# Submitted via: FreeRIP 2.92 
#
DISCID=de0ab111
DTITLE=ÈECHOMOR - 
DYEAR=1900
DGENRE=Country
TTITLE0=ÈECHOMOR
TTITLE1=ÈECHOMOR
TTITLE2=ÈECHOMOR
TTITLE3=ÈECHOMOR
TTITLE4=ÈECHOMOR
TTITLE5=ÈECHOMOR
TTITLE6=ÈECHOMOR
TTITLE7=ÈECHOMOR
TTITLE8=ÈECHOMOR
TTITLE9=ÈECHOMOR
TTITLE10=ÈECHOMOR
TTITLE11=ÈECHOMOR
TTITLE12=ÈECHOMOR
TTITLE13=ÈECHOMOR
TTITLE14=ÈECHOMOR
TTITLE15=ÈECHOMOR
TTITLE16=ÈECHOMOR
EXTD=
EXTT0=
EXTT1=
EXTT2=
EXTT3=
EXTT4=
EXTT5=
EXTT6=
EXTT7=
EXTT8=
EXTT9=
EXTT10=
EXTT11=
EXTT12=
EXTT13=
EXTT14=
EXTT15=
EXTT16=
PLAYORDER=
